<?xml version="1.0" standalone="no"?>
<!DOCTYPE svg PUBLIC "-//W3C//DTD SVG 20010904//EN"
 "http://www.w3.org/TR/2001/REC-SVG-20010904/DTD/svg10.dtd">
<svg version="1.0" xmlns="http://www.w3.org/2000/svg"
 width="300.000000pt" height="300.000000pt" viewBox="0 0 300.000000 300.000000"
 preserveAspectRatio="xMidYMid meet">
<metadata>
Created by potrace 1.14, written by Peter Selinger 2001-2017
</metadata>
<g transform="translate(0.000000,300.000000) scale(0.100000,-0.100000)"
fill="#000000" stroke="none">
<path d="M1328 2965 c-1 -1 -29 -6 -62 -10 -77 -8 -233 -48 -321 -82 -347
-131 -644 -407 -805 -748 -36 -76 -85 -213 -95 -267 -2 -11 -6 -27 -9 -36 -3
-9 -8 -33 -11 -52 -3 -19 -9 -60 -14 -90 -16 -95 -6 -353 18 -466 119 -571
532 -1002 1096 -1143 44 -11 107 -23 140 -28 79 -11 395 -10 465 1 30 4 64 9
75 11 73 10 249 69 351 116 74 34 239 133 269 162 7 7 30 26 51 43 77 63 164
154 227 239 20 28 40 55 44 60 22 28 84 138 112 198 134 284 171 609 107 943
-3 17 -15 60 -26 95 -10 35 -20 67 -20 71 0 4 -16 43 -34 86 -76 178 -182 335
-314 465 -136 134 -248 215 -398 287 -139 67 -238 98 -448 138 -44 9 -389 15
-398 7z"/>
</g>
</svg>
